<?xml version="1.0" encoding="UTF-8" standalone="no"?>
<svg
   width="108"
   height="108"
   viewBox="0 0 108 108"
   version="1.1"
   id="svg26"
   sodipodi:docname="suntimes_nfc1.svg"
   inkscape:version="1.4.2 (f4327f4, 2025-05-13)"
   inkscape:export-xdpi="2048"
   inkscape:export-ydpi="2048"
   xmlns:inkscape="http://www.inkscape.org/namespaces/inkscape"
   xmlns:sodipodi="http://sodipodi.sourceforge.net/DTD/sodipodi-0.dtd"
   xmlns="http://www.w3.org/2000/svg"
   xmlns:svg="http://www.w3.org/2000/svg"
   xmlns:rdf="http://www.w3.org/1999/02/22-rdf-syntax-ns#"
   xmlns:cc="http://creativecommons.org/ns#"
   xmlns:dc="http://purl.org/dc/elements/1.1/">
  <metadata
     id="metadata32">
    <rdf:RDF>
      <cc:Work
         rdf:about="">
        <dc:format>image/svg+xml</dc:format>
        <dc:type
           rdf:resource="http://purl.org/dc/dcmitype/StillImage" />
        <cc:license
           rdf:resource="http://creativecommons.org/licenses/by-sa/4.0/" />
        <dc:creator>
          <cc:Agent>
            <dc:title>Forrest Guice</dc:title>
          </cc:Agent>
        </dc:creator>
        <dc:date>2020-10-02</dc:date>
      </cc:Work>
      <cc:License
         rdf:about="http://creativecommons.org/licenses/by-sa/4.0/">
        <cc:permits
           rdf:resource="http://creativecommons.org/ns#Reproduction" />
        <cc:permits
           rdf:resource="http://creativecommons.org/ns#Distribution" />
        <cc:requires
           rdf:resource="http://creativecommons.org/ns#Notice" />
        <cc:requires
           rdf:resource="http://creativecommons.org/ns#Attribution" />
        <cc:permits
           rdf:resource="http://creativecommons.org/ns#DerivativeWorks" />
        <cc:requires
           rdf:resource="http://creativecommons.org/ns#ShareAlike" />
      </cc:License>
    </rdf:RDF>
  </metadata>
  <defs
     id="defs30">
    <marker
       inkscape:stockid="DotS"
       orient="auto"
       refY="0"
       refX="0"
       id="DotS"
       style="overflow:visible"
       inkscape:isstock="true">
      <path
         id="path2480"
         d="m -2.5,-1 c 0,2.76 -2.24,5 -5,5 -2.76,0 -5,-2.24 -5,-5 0,-2.76 2.24,-5 5,-5 2.76,0 5,2.24 5,5 z"
         style="fill:#ffcc00;fill-opacity:1;fill-rule:evenodd;stroke:#808080;stroke-width:1pt;stroke-opacity:1"
         transform="matrix(0.2,0,0,0.2,1.48,0.2)" />
    </marker>
    <marker
       inkscape:stockid="Tail"
       orient="auto"
       refY="0"
       refX="0"
       id="Tail"
       style="overflow:visible"
       inkscape:isstock="true">
      <g
         id="g2461"
         transform="scale(-1.2)"
         style="fill:#ffcc00;fill-opacity:1;stroke:#808080;stroke-opacity:1">
        <path
           id="path2449"
           d="M -3.8048674,-3.9585227 0.54352094,0"
           style="fill:#ffcc00;fill-opacity:1;fill-rule:evenodd;stroke:#808080;stroke-width:0.8;stroke-linecap:round;stroke-opacity:1" />
        <path
           id="path2451"
           d="M -1.2866832,-3.9585227 3.0617053,0"
           style="fill:#ffcc00;fill-opacity:1;fill-rule:evenodd;stroke:#808080;stroke-width:0.8;stroke-linecap:round;stroke-opacity:1" />
        <path
           id="path2453"
           d="M 1.3053582,-3.9585227 5.6537466,0"
           style="fill:#ffcc00;fill-opacity:1;fill-rule:evenodd;stroke:#808080;stroke-width:0.8;stroke-linecap:round;stroke-opacity:1" />
        <path
           id="path2455"
           d="M -3.8048674,4.1775838 0.54352094,0.21974226"
           style="fill:#ffcc00;fill-opacity:1;fill-rule:evenodd;stroke:#808080;stroke-width:0.8;stroke-linecap:round;stroke-opacity:1" />
        <path
           id="path2457"
           d="M -1.2866832,4.1775838 3.0617053,0.21974226"
           style="fill:#ffcc00;fill-opacity:1;fill-rule:evenodd;stroke:#808080;stroke-width:0.8;stroke-linecap:round;stroke-opacity:1" />
        <path
           id="path2459"
           d="M 1.3053582,4.1775838 5.6537466,0.21974226"
           style="fill:#ffcc00;fill-opacity:1;fill-rule:evenodd;stroke:#808080;stroke-width:0.8;stroke-linecap:round;stroke-opacity:1" />
      </g>
    </marker>
    <marker
       inkscape:stockid="Arrow1Mend"
       orient="auto"
       refY="0"
       refX="0"
       id="Arrow1Mend"
       style="overflow:visible"
       inkscape:isstock="true">
      <path
         id="path2422"
         d="M 0,0 5,-5 -12.5,0 5,5 Z"
         style="fill:#ffcc00;fill-opacity:1;fill-rule:evenodd;stroke:#808080;stroke-width:1pt;stroke-opacity:1"
         transform="matrix(-0.4,0,0,-0.4,-4,0)" />
    </marker>
    <marker
       inkscape:stockid="Arrow1Lstart"
       orient="auto"
       refY="0"
       refX="0"
       id="Arrow1Lstart"
       style="overflow:visible"
       inkscape:isstock="true">
      <path
         id="path2413"
         d="M 0,0 5,-5 -12.5,0 5,5 Z"
         style="fill:#ffcc00;fill-opacity:1;fill-rule:evenodd;stroke:#808080;stroke-width:1pt;stroke-opacity:1"
         transform="matrix(0.8,0,0,0.8,10,0)" />
    </marker>
  </defs>
  <sodipodi:namedview
     pagecolor="#ffffff"
     bordercolor="#666666"
     borderopacity="1"
     objecttolerance="10"
     gridtolerance="10"
     guidetolerance="10"
     inkscape:pageopacity="0"
     inkscape:pageshadow="2"
     inkscape:window-width="1127"
     inkscape:window-height="651"
     id="namedview28"
     showgrid="true"
     inkscape:zoom="1.9999999"
     inkscape:cx="16.000001"
     inkscape:cy="51.750003"
     inkscape:window-x="2057"
     inkscape:window-y="214"
     inkscape:window-maximized="0"
     inkscape:current-layer="svg26"
     showguides="false"
     inkscape:showpageshadow="2"
     inkscape:pagecheckerboard="0"
     inkscape:deskcolor="#d1d1d1">
    <inkscape:grid
       type="xygrid"
       id="grid4671"
       originx="0"
       originy="0"
       spacingy="1"
       spacingx="1"
       units="px" />
  </sodipodi:namedview>
  <rect
     style="fill:#000000;fill-opacity:1;stroke:none;stroke-width:8.98268;stroke-linecap:square;stroke-linejoin:round;stroke-miterlimit:4;stroke-dasharray:71.8614, 8.98268;stroke-dashoffset:0;stroke-opacity:0.337255;paint-order:normal"
     id="rect1253"
     width="107.79216"
     height="107.79216"
     x="0.12500058"
     y="-8.8229251e-07" />
  <g
     id="g53"
     transform="matrix(2.4273396,0,0,2.4273396,32.250582,31.34033)">
    <path
       d="M 7.46875,10.279297 C 8.0327631,9.2130317 8.851082,8.3028199 9.84375,7.6289062 v -1.828125 h 2.650391 v 0.7109375 c 0.474167,-0.096221 0.964265,-0.1464843 1.466797,-0.1464843 0.100352,0 0.201407,0.00187 0.300781,0.00586 V 4.0332031 H 9.84375 c -0.9718813,0 -1.7675781,0.7956969 -1.7675781,1.7675781 v 2.015625 c -0.5301171,0.309235 -0.8828125,0.8657203 -0.8828125,1.5195313 0,0.3463404 0.1014162,0.6698885 0.2753906,0.9433595 z"
       style="fill:#ffffff;fill-opacity:0.566265"
       id="path47" />
    <path
       d="m 6.6796875,14.636719 c -0.038441,-0.304629 -0.058594,-0.614613 -0.058594,-0.929688 0,-0.282992 0.015696,-0.563228 0.046875,-0.83789 H 5.4257812 V 5.8007812 H 7.1933594 V 4.0332031 H 3.6582031 V 14.636719 Z"
       style="fill:#ffffff;fill-opacity:0.566265"
       id="path44" />
    <g
       id="g52">
      <g
         id="g50">
        <path
           d="M 1.8925781,0.5 C 0.92069685,0.5 0.125,1.2956969 0.125,2.2675781 V 16.404297 c 0,0.971881 0.79569685,1.765625 1.7675781,1.765625 h 6.2382813 c -0.4104508,-0.535611 -0.7484018,-1.128046 -1,-1.765625 H 1.8925781 V 2.2675781 H 16.029297 v 4.3925781 c 0.627986,0.1839271 1.219668,0.4501491 1.765625,0.7851563 V 2.2675781 C 17.794922,1.2956969 17.001178,0.5 16.029297,0.5 Z"
           style="fill:#ffffff;fill-opacity:0.566265"
           id="path39" />
      </g>
      <g
         id="g51">
        <path
           fill="#ff00ff"
           d="m 13.962,6.36457 c -4.0540427,0 -7.3413247,3.287282 -7.3413247,7.341324 0,4.054043 3.279125,7.341325 7.3413247,7.341325 4.054043,0 7.341325,-3.287282 7.341325,-7.341325 0,-4.054042 -3.287282,-7.341324 -7.341325,-7.341324 z"
           fill-opacity="0.9"
           stroke="#000000"
           stroke-opacity="0"
           stroke-width="0.16314"
           id="path2-4"
           style="fill:#ffffff;fill-opacity:0.2" />
        <path
           fill="#ffcc00"
           d="M 13.973436,7.8252865 A 5.8271764,5.5843621 0 0 0 8.1538759,13.166835 l 11.6324201,9.1e-5 a 5.8271764,5.5843621 0 0 0 -5.81286,-5.3416395 z"
           stroke-linejoin="round"
           stroke="#000000"
           stroke-opacity="0"
           stroke-width="8.29979"
           id="path3"
           style="fill:#ffffff;fill-opacity:1" />
        <path
           fill="#ff9900"
           d="m 8.1538707,14.303129 a 5.8271764,5.5843621 0 0 0 5.8195593,5.341547 5.8271764,5.5843621 0 0 0 5.812953,-5.341547 z"
           stroke-linejoin="round"
           stroke="#000000"
           stroke-opacity="0"
           stroke-width="8.29978"
           id="path4"
           style="fill:#ffffff;fill-opacity:0.261044" />
      </g>
    </g>
  </g>
  <path
     d="m 1.581856,0.82531614 h 24 V 24.825316 h -24 z"
     id="path22"
     inkscape:connector-curvature="0"
     style="fill:none" />
  <path
     d="m 24.486385,16.321261 h 24 v 24 h -24 z"
     id="path22-1"
     inkscape:connector-curvature="0"
     style="fill:none" />
</svg>
