<?xml version="1.0" encoding="UTF-8" standalone="no"?>
<svg
   width="108"
   height="108"
   viewBox="0 0 108 108"
   version="1.1"
   id="svg26"
   sodipodi:docname="suntimes_nfc1.svg"
   inkscape:version="1.4.2 (f4327f4, 2025-05-13)"
   inkscape:export-xdpi="2048"
   inkscape:export-ydpi="2048"
   xmlns:inkscape="http://www.inkscape.org/namespaces/inkscape"
   xmlns:sodipodi="http://sodipodi.sourceforge.net/DTD/sodipodi-0.dtd"
   xmlns="http://www.w3.org/2000/svg"
   xmlns:svg="http://www.w3.org/2000/svg"
   xmlns:rdf="http://www.w3.org/1999/02/22-rdf-syntax-ns#"
   xmlns:cc="http://creativecommons.org/ns#"
   xmlns:dc="http://purl.org/dc/elements/1.1/">
  <metadata
     id="metadata32">
    <rdf:RDF>
      <cc:Work
         rdf:about="">
        <dc:format>image/svg+xml</dc:format>
        <dc:type
           rdf:resource="http://purl.org/dc/dcmitype/StillImage" />
        <cc:license
           rdf:resource="http://creativecommons.org/licenses/by-sa/4.0/" />
        <dc:creator>
          <cc:Agent>
            <dc:title>Forrest Guice</dc:title>
          </cc:Agent>
        </dc:creator>
        <dc:date>2020-10-02</dc:date>
      </cc:Work>
      <cc:License
         rdf:about="http://creativecommons.org/licenses/by-sa/4.0/">
        <cc:permits
           rdf:resource="http://creativecommons.org/ns#Reproduction" />
        <cc:permits
           rdf:resource="http://creativecommons.org/ns#Distribution" />
        <cc:requires
           rdf:resource="http://creativecommons.org/ns#Notice" />
        <cc:requires
           rdf:resource="http://creativecommons.org/ns#Attribution" />
        <cc:permits
           rdf:resource="http://creativecommons.org/ns#DerivativeWorks" />
        <cc:requires
           rdf:resource="http://creativecommons.org/ns#ShareAlike" />
      </cc:License>
    </rdf:RDF>
  </metadata>
  <defs
     id="defs30">
    <marker
       inkscape:stockid="DotS"
       orient="auto"
       refY="0"
       refX="0"
       id="DotS"
       style="overflow:visible"
       inkscape:isstock="true">
      <path
         id="path2480"
         d="m -2.5,-1 c 0,2.76 -2.24,5 -5,5 -2.76,0 -5,-2.24 -5,-5 0,-2.76 2.24,-5 5,-5 2.76,0 5,2.24 5,5 z"
         style="fill:#ffcc00;fill-opacity:1;fill-rule:evenodd;stroke:#808080;stroke-width:1pt;stroke-opacity:1"
         transform="matrix(0.2,0,0,0.2,1.48,0.2)" />
    </marker>
    <marker
       inkscape:stockid="Tail"
       orient="auto"
       refY="0"
       refX="0"
       id="Tail"
       style="overflow:visible"
       inkscape:isstock="true">
      <g
         id="g2461"
         transform="scale(-1.2)"
         style="fill:#ffcc00;fill-opacity:1;stroke:#808080;stroke-opacity:1">
        <path
           id="path2449"
           d="M -3.8048674,-3.9585227 0.54352094,0"
           style="fill:#ffcc00;fill-opacity:1;fill-rule:evenodd;stroke:#808080;stroke-width:0.8;stroke-linecap:round;stroke-opacity:1" />
        <path
           id="path2451"
           d="M -1.2866832,-3.9585227 3.0617053,0"
           style="fill:#ffcc00;fill-opacity:1;fill-rule:evenodd;stroke:#808080;stroke-width:0.8;stroke-linecap:round;stroke-opacity:1" />
        <path
           id="path2453"
           d="M 1.3053582,-3.9585227 5.6537466,0"
           style="fill:#ffcc00;fill-opacity:1;fill-rule:evenodd;stroke:#808080;stroke-width:0.8;stroke-linecap:round;stroke-opacity:1" />
        <path
           id="path2455"
           d="M -3.8048674,4.1775838 0.54352094,0.21974226"
           style="fill:#ffcc00;fill-opacity:1;fill-rule:evenodd;stroke:#808080;stroke-width:0.8;stroke-linecap:round;stroke-opacity:1" />
        <path
           id="path2457"
           d="M -1.2866832,4.1775838 3.0617053,0.21974226"
           style="fill:#ffcc00;fill-opacity:1;fill-rule:evenodd;stroke:#808080;stroke-width:0.8;stroke-linecap:round;stroke-opacity:1" />
        <path
           id="path2459"
           d="M 1.3053582,4.1775838 5.6537466,0.21974226"
           style="fill:#ffcc00;fill-opacity:1;fill-rule:evenodd;stroke:#808080;stroke-width:0.8;stroke-linecap:round;stroke-opacity:1" />
      </g>
    </marker>
    <marker
       inkscape:stockid="Arrow1Mend"
       orient="auto"
       refY="0"
       refX="0"
       id="Arrow1Mend"
       style="overflow:visible"
       inkscape:isstock="true">
      <path
         id="path2422"
         d="M 0,0 5,-5 -12.5,0 5,5 Z"
         style="fill:#ffcc00;fill-opacity:1;fill-rule:evenodd;stroke:#808080;stroke-width:1pt;stroke-opacity:1"
         transform="matrix(-0.4,0,0,-0.4,-4,0)" />
    </marker>
    <marker
       inkscape:stockid="Arrow1Lstart"
       orient="auto"
       refY="0"
       refX="0"
       id="Arrow1Lstart"
       style="overflow:visible"
       inkscape:isstock="true">
      <path
         id="path2413"
         d="M 0,0 5,-5 -12.5,0 5,5 Z"
         style="fill:#ffcc00;fill-opacity:1;fill-rule:evenodd;stroke:#808080;stroke-width:1pt;stroke-opacity:1"
         transform="matrix(0.8,0,0,0.8,10,0)" />
    </marker>
  </defs>
  <sodipodi:namedview
     pagecolor="#ffffff"
     bordercolor="#666666"
     borderopacity="1"
     objecttolerance="10"
     gridtolerance="10"
     guidetolerance="10"
     inkscape:pageopacity="0"
     inkscape:pageshadow="2"
     inkscape:window-width="1127"
     inkscape:window-height="651"
     id="namedview28"
     showgrid="true"
     inkscape:zoom="1.9999999"
     inkscape:cx="16.000001"
     inkscape:cy="51.750003"
     inkscape:window-x="2057"
     inkscape:window-y="214"
     inkscape:window-maximized="0"
     inkscape:current-layer="svg26"
     showguides="false"
     inkscape:showpageshadow="2"
     inkscape:pagecheckerboard="0"
     inkscape:deskcolor="#d1d1d1">
    <inkscape:grid
       type="xygrid"
       id="grid4671"
       originx="0"
       originy="0"
       spacingy="1"
       spacingx="1"
       units="px" />
  </sodipodi:namedview>
  <rect
     style="fill:#000000;fill-opacity:1;stroke:none;stroke-width:8.98268;stroke-linecap:square;stroke-linejoin:round;stroke-miterlimit:4;stroke-dasharray:71.8614, 8.98268;stroke-dashoffset:0;stroke-opacity:0.337255;paint-order:normal"
     id="rect1253"
     width="107.79216"
     height="107.79216"
     x="0.12500058"
     y="-8.8229251e-07" />
  <path
     d="m 50.379775,56.291675 c 1.369051,-2.588188 3.355389,-4.797581 5.764931,-6.433399 v -4.43748 h 6.433399 v 1.725687 c 1.150965,-0.233561 2.340599,-0.355567 3.560415,-0.355567 0.243588,0 0.488883,0.0045 0.730097,0.01422 V 41.130284 H 56.144706 c -2.359086,0 -4.290512,1.931426 -4.290512,4.290512 v 4.892606 c -1.286774,0.750619 -2.142886,2.101397 -2.142886,3.688419 0,0.840686 0.246172,1.626047 0.668467,2.289854 z"
     style="fill:#ffffff;fill-opacity:0.566265;stroke-width:2.42734"
     id="path47" />
  <path
     d="m 48.464452,66.868618 c -0.09331,-0.739438 -0.142228,-1.491875 -0.142228,-2.256669 0,-0.686918 0.0381,-1.367145 0.113782,-2.033843 h -3.01521 v -17.15731 h 4.290512 v -4.290512 h -8.581025 v 25.738334 z"
     style="fill:#ffffff;fill-opacity:0.566265;stroke-width:2.42734"
     id="path44" />
  <path
     d="m 36.844512,32.554 c -2.359086,0 -4.290513,1.931426 -4.290513,4.290512 V 71.15913 c 0,2.359085 1.931427,4.285771 4.290513,4.285771 H 51.986939 C 50.990636,74.144791 50.170314,72.70675 49.559599,71.15913 H 36.844512 V 36.844512 h 34.314617 v 10.662279 c 1.524336,0.446453 2.960549,1.092665 4.285772,1.905841 v -12.56812 c 0,-2.359086 -1.926686,-4.290512 -4.285772,-4.290512 z"
     style="fill:#ffffff;fill-opacity:0.566265;stroke-width:2.42734"
     id="path39" />
  <path
     fill="#ff00ff"
     d="m 66.141097,46.789303 c -9.840538,0 -17.819888,7.97935 -17.819888,17.819886 0,9.840539 7.95955,17.819889 17.819888,17.819889 9.84054,0 17.819889,-7.97935 17.819889,-17.819889 0,-9.840536 -7.979349,-17.819886 -17.819889,-17.819886 z"
     fill-opacity="0.9"
     stroke="#000000"
     stroke-opacity="0"
     stroke-width="0.395996"
     id="path2-4"
     style="fill:#ffffff;fill-opacity:0.2" />
  <path
     fill="#ffcc00"
     d="M 66.168857,50.334958 A 14.144536,13.555143 0 0 0 52.042808,63.30071 l 28.235834,2.21e-4 A 14.144536,13.555143 0 0 0 66.168857,50.334958 Z"
     stroke-linejoin="round"
     stroke="#000000"
     stroke-opacity="0"
     stroke-width="20.1464"
     id="path3"
     style="fill:#ffffff;fill-opacity:1" />
  <path
     fill="#ff9900"
     d="M 52.042795,66.058881 A 14.144536,13.555143 0 0 0 66.168842,79.02463 14.144536,13.555143 0 0 0 80.278853,66.058881 Z"
     stroke-linejoin="round"
     stroke="#000000"
     stroke-opacity="0"
     stroke-width="20.1464"
     id="path4"
     style="fill:#ffffff;fill-opacity:0.56999999" />
  <path
     d="m 1.581856,0.82531614 h 24 V 24.825316 h -24 z"
     id="path22"
     inkscape:connector-curvature="0"
     style="fill:none" />
  <path
     d="m 24.486385,16.321261 h 24 v 24 h -24 z"
     id="path22-1"
     inkscape:connector-curvature="0"
     style="fill:none" />
</svg>
